<svg xmlns="http://www.w3.org/2000/svg" viewBox="0 0 32 32">
  <circle cx="16" cy="16" r="15" fill="#00b900"/>
  <path d="M25 14c0-4.4-4-8-9-8s-9 3.6-9 8c0 3.9 3.5 7.2 8.2 7.8.3.1.7.3.8.6.1.3.1.6 0 .9l-.1.9c0 .3-.2 1 .9.5s5.9-3.5 8.1-6c1.3-1.4 2.1-2.9 2.1-4.7zm-12.5 2.5h-2v-5c0-.3-.2-.5-.5-.5s-.5.2-.5.5v5.5c0 .3.2.5.5.5h2.5c.3 0 .5-.2.5-.5s-.2-.5-.5-.5zm2 0c.3 0 .5-.2.5-.5v-5c0-.3-.2-.5-.5-.5s-.5.2-.5.5v5c0 .3.2.5.5.5zm4.5-5.5c0-.3-.2-.5-.5-.5s-.5.2-.5.5v3.1l-2.2-3c-.1-.2-.3-.3-.5-.2-.3 0-.5.2-.5.5v5c0 .3.2.5.5.5s.5-.2.5-.5v-3.1l2.2 3c.1.1.2.2.3.2h.2c.3 0 .5-.2.5-.5v-5zm2 4.5h-2v-1.5h2c.3 0 .5-.2.5-.5s-.2-.5-.5-.5h-2V11h2c.3 0 .5-.2.5-.5s-.2-.5-.5-.5h-2.5c-.3 0-.5.2-.5.5v5.5c0 .3.2.5.5.5h2.5c.3 0 .5-.2.5-.5s-.2-.5-.5-.5z" fill="white"/>
</svg>